Coordinates
version=1
nRows=7
nColumns=40
inDegrees=yes

Units are S.I. units (second, meters, Newtons, ...)
If the header above contains a line with 'inDegrees', this indicates whether rotational values are in degrees (yes) or radians (no).

endheader
time	pelvis_tilt	pelvis_list	pelvis_rotation	pelvis_tx	pelvis_ty	pelvis_tz	hip_flexion_r	hip_adduction_r	hip_rotation_r	knee_angle_r	knee_angle_r_beta	ankle_angle_r	subtalar_angle_r	mtp_angle_r	hip_flexion_l	hip_adduction_l	hip_rotation_l	knee_angle_l	knee_angle_l_beta	ankle_angle_l	subtalar_angle_l	mtp_angle_l	lumbar_extension	lumbar_bending	lumbar_rotation	arm_flex_r	arm_add_r	arm_rot_r	elbow_flex_r	pro_sup_r	wrist_flex_r	wrist_dev_r	arm_flex_l	arm_add_l	arm_rot_l	elbow_flex_l	pro_sup_l	wrist_flex_l	wrist_dev_l
      0.00500000	      2.30001428	      1.70800424	      0.21003415	      0.26979453	      0.91590733	     -1.21281534	     -4.31643547	    -19.80914998	    -38.12695182	      5.28028283	      0.09215832	     -7.43828066	      8.68337916	      0.00000000	     -2.19023120	    -16.82059418	    -39.25286529	      6.61430672	      0.11544143	     -4.59223750	     18.59748728	      0.00000000	     -5.47973759	     -0.62934315	     -0.85240823	     39.71846164	    -15.19398989	     39.71846164	     76.76846966	     44.61916921	      0.00000000	      0.00000000	     39.71846164	    -15.19398989	     39.71846164	     76.76846966	     44.61916921	      0.00000000	      0.00000000
      0.01000000	      2.36462521	      1.61827800	      0.21305323	      0.26963032	      0.91607006	     -1.21288916	     -4.38961069	    -19.68283780	    -38.09248516	      5.19934920	      0.09074576	     -7.65340839	      8.52117309	      0.00000000	     -2.24885595	    -16.91117478	    -39.22940486	      6.60480088	      0.11527552	     -4.59017431	     18.52696377	      0.00000000	     -5.60857571	     -0.54168011	     -0.93079316	     40.07384382	    -15.17607941	     40.07384382	     76.54478886	     44.67979226	      0.00000000	      0.00000000	     40.07384382	    -15.17607941	     40.07384382	     76.54478886	     44.67979226	      0.00000000	      0.00000000
      0.01500000	      2.36913085	      1.56958668	      0.21522514	      0.26957463	      0.91610849	     -1.21292231	     -4.39484872	    -19.61115891	    -38.06487044	      5.15909170	      0.09004314	     -7.73852385	      8.40455170	      0.00000000	     -2.24346749	    -16.96943895	    -39.22460862	      6.62249446	      0.11558433	     -4.57642178	     18.51234521	      0.00000000	     -5.62136393	     -0.51638482	     -0.99235850	     40.27603207	    -15.16574847	     40.27603207	     76.41026739	     44.72344618	      0.00000000	      0.00000000	     40.27603207	    -15.16574847	     40.27603207	     76.41026739	     44.72344618	      0.00000000	      0.00000000
      0.02000000	      2.30865489	      1.64064892	      0.21965317	      0.26953192	      0.91597280	     -1.21289283	     -4.27243497	    -19.74239221	    -38.08620977	      5.31199711	      0.09271184	     -7.59287719	      8.49154141	      0.00000000	     -2.16084568	    -16.90366828	    -39.23444093	      6.64916835	      0.11604988	     -4.57037407	     18.55347531	      0.00000000	     -5.57729373	     -0.56614076	     -0.89515151	     40.46980004	    -15.15628140	     40.46980004	     76.29445811	     44.75804845	      0.00000000	      0.00000000	     40.46980004	    -15.15628140	     40.46980004	     76.29445811	     44.75804845	      0.00000000	      0.00000000
      0.02500000	      2.28763954	      1.72150831	      0.17898081	      0.26945810	      0.91589471	     -1.21284141	     -4.19637028	    -19.85259354	    -38.00414577	      5.38500501	      0.09398607	     -7.55261475	      8.38231697	      0.00000000	     -2.16559356	    -16.78885613	    -39.23304537	      6.58711033	      0.11496676	     -4.59030503	     18.48422914	      0.00000000	     -5.58089957	     -0.62888266	     -0.80331260	     40.63178793	    -15.14847002	     40.63178793	     76.20061244	     44.78548237	      0.00000000	      0.00000000	     40.63178793	    -15.14847002	     40.63178793	     76.20061244	     44.78548237	      0.00000000	      0.00000000
      0.03000000	      2.28728944	      1.65188720	      0.19134127	      0.26935005	      0.91593609	     -1.21290230	     -4.14837426	    -19.80341019	    -38.03418189	      5.45853054	      0.09526933	     -7.61059170	      8.35131490	      0.00000000	     -2.13691999	    -16.88251642	    -39.23351153	      6.64183982	      0.11592197	     -4.57422439	     18.49257485	      0.00000000	     -5.61024763	     -0.56369690	     -0.88089153	     40.91927990	    -15.13481418	     40.91927990	     76.03921682	     44.83187844	      0.00000000	      0.00000000	     40.91927990	    -15.13481418	     40.91927990	     76.03921682	     44.83187844	      0.00000000	      0.00000000
      0.03500000	      2.25225158	      1.67892943	      0.16762488	      0.26925963	      0.91585335	     -1.21286859	     -4.02474242	    -19.89256465	    -38.04183036	      5.62634457	      0.09819824	     -7.51075909	      8.37783294	      0.00000000	     -2.09940460	    -16.85149787	    -39.23891162	      6.64192597	      0.11592348	     -4.56529428	     18.47263907	      0.00000000	     -5.59967307	     -0.58364587	     -0.83520303	     41.30546611	    -15.11687081	     41.30546611	     75.83542294	     44.88451949	      0.00000000	      0.00000000	     41.30546611	    -15.11687081	     41.30546611	     75.83542294	     44.88451949	      0.00000000	      0.00000000
